<?xml version="1.0" encoding="utf-8"?><!-- Uploaded to: SVG Repo, www.svgrepo.com, Generator: SVG Repo Mixer Tools -->
<svg width="800px" height="800px" viewBox="0 0 32 32" fill="none" xmlns="http://www.w3.org/2000/svg">
<path d="M27 14V20C27 26.08 22.08 31 16 31C9.92 31 5 26.08 5 20V14C5 13.44 5.45 13 6 13H11H21H26C26.59 13 27 13.47 27 14Z" fill="#FFC44D"/>
<path d="M16 21C16.55 21 17 20.55 17 20C17 19.45 16.55 19 16 19C15.45 19 15 19.45 15 20C15 20.55 15.45 21 16 21Z" fill="#668077"/>
<path d="M16 21V23M16 21C15.447 21 15 20.553 15 20C15 19.447 15.447 19 16 19C16.553 19 17 19.447 17 20C17 20.553 16.553 21 16 21ZM18 13H11V6C11 3.238 13.238 1 16 1C18.762 1 21 3.238 21 6V13H26C26.594 13 27 13.469 27 14V20C27 26.075 22.075 31 16 31C9.925 31 5 26.075 5 20V14C5 13.437 5.453 13 6 13H8" stroke="#000000" stroke-width="2" stroke-linecap="round" stroke-linejoin="round"/>
</svg>